<?xml version="1.0" standalone="no"?>
<!DOCTYPE svg PUBLIC "-//W3C//DTD SVG 20010904//EN"
 "http://www.w3.org/TR/2001/REC-SVG-20010904/DTD/svg10.dtd">
<svg version="1.0" xmlns="http://www.w3.org/2000/svg"
 width="500.000000pt" height="500.000000pt" viewBox="0 0 500.000000 500.000000"
 preserveAspectRatio="xMidYMid meet">

<g transform="translate(0.000000,500.000000) scale(0.100000,-0.100000)"
fill="#000000" stroke="none">
<path d="M2318 4280 c-48 -10 -124 -35 -170 -55 -59 -27 -106 -40 -163 -46
-122 -14 -231 -44 -330 -93 -80 -40 -133 -76 -323 -219 -137 -104 -248 -261
-312 -444 -11 -29 -43 -81 -77 -121 -108 -129 -160 -236 -193 -394 -74 -362
-63 -588 41 -802 16 -33 29 -72 29 -86 0 -46 29 -199 51 -263 24 -74 97 -204
148 -267 21 -25 57 -74 81 -110 59 -87 168 -194 258 -254 41 -27 124 -69 185
-93 62 -24 125 -56 142 -72 117 -108 275 -186 435 -214 373 -67 557 -57 759
38 54 26 96 38 160 45 209 24 317 73 562 258 132 99 168 133 230 215 68 90
111 171 145 270 16 47 39 86 78 132 106 125 174 269 200 420 39 233 49 357 37
462 -11 105 -47 235 -86 313 -14 28 -25 74 -29 122 -15 167 -85 347 -186 478
-28 36 -68 90 -89 120 -117 167 -287 295 -471 355 -37 13 -79 39 -130 82 -47
40 -116 84 -185 118 -120 60 -195 79 -435 110 -158 20 -252 18 -362 -5z m450
-136 c65 -21 207 -93 199 -100 -1 -1 -59 -10 -129 -19 l-126 -16 -54 27 c-29
15 -91 42 -137 59 l-83 32 83 17 c46 9 98 18 114 20 17 1 36 4 43 5 8 0 48
-11 90 -25z m-325 -135 c51 -16 97 -35 102 -41 7 -8 4 -9 -10 -3 -11 4 -63 20
-115 35 -52 15 -111 32 -130 39 -34 10 -34 11 13 6 27 -3 90 -19 140 -36z
m-550 -97 c-28 -26 -77 -74 -108 -107 -31 -33 -52 -52 -47 -42 17 35 174 197
190 197 11 0 -1 -17 -35 -48z m395 13 c39 -10 72 -20 72 -24 0 -3 -46 -27
-103 -53 -88 -41 -114 -48 -187 -53 -47 -3 -101 -8 -120 -11 l-35 -6 25 27
c14 15 57 54 95 87 l70 59 55 -5 c30 -2 88 -12 128 -21z m-610 -63 c-35 -43
-77 -98 -94 -123 -25 -35 -42 -48 -90 -65 -32 -12 -85 -34 -116 -48 -32 -14
-58 -22 -58 -18 0 16 97 153 139 197 24 25 56 52 72 60 22 12 195 74 207 75 1
0 -26 -35 -60 -78z m1445 61 c3 -5 -51 -8 -119 -8 -69 0 -117 3 -107 7 24 9
221 10 226 1z m102 -132 c22 -5 43 -27 87 -91 32 -46 57 -85 55 -87 -2 -1 -46
11 -98 29 -72 23 -105 41 -139 72 -25 23 -57 51 -72 63 -16 11 -28 23 -28 26
0 7 156 -3 195 -12z m-509 -27 c17 -14 17 -15 1 -10 -10 3 -35 6 -55 7 -30 0
-33 2 -17 9 30 13 49 12 71 -6z m732 -41 c26 -37 107 -204 87 -178 -30 37
-124 205 -115 205 5 0 17 -12 28 -27z m319 -150 c37 -30 78 -71 90 -91 23 -37
73 -175 73 -201 0 -7 -23 6 -52 31 -29 24 -83 65 -119 91 -60 42 -68 53 -89
109 -12 35 -33 84 -46 110 -13 26 -24 50 -24 53 0 12 101 -49 167 -102z
m-1517 50 c-30 -14 -75 -27 -100 -29 l-45 -4 45 21 c41 20 100 35 140 37 8 1
-10 -11 -40 -25z m475 -73 l70 -33 -83 -14 c-76 -12 -85 -12 -120 6 -20 10
-62 27 -92 37 l-55 18 50 13 c80 20 151 12 230 -27z m386 -46 c20 -14 47 -36
60 -50 l24 -25 -55 25 c-30 14 -60 26 -67 26 -6 0 -29 15 -50 33 -21 17 -50
40 -64 49 -18 13 -6 11 46 -8 39 -13 86 -36 106 -50z m-1651 35 c-57 -36 -204
-119 -207 -116 -7 8 29 31 120 79 86 44 122 60 87 37z m310 -2 c0 -5 -87 -67
-94 -67 -3 0 -1 10 6 21 14 24 88 62 88 46z m687 -54 c-6 -5 -100 18 -111 28
-4 4 19 0 53 -8 34 -9 60 -17 58 -20z m-387 -78 c-24 -25 -46 -45 -49 -45 -3
0 15 20 39 45 24 25 46 45 49 45 3 0 -15 -20 -39 -45z m287 23 l43 -10 -70
-33 c-49 -24 -89 -35 -142 -40 l-73 -7 58 57 c63 62 63 62 184 33z m506 5
c-23 -2 -64 -2 -90 0 -26 2 -7 3 42 3 50 0 71 -1 48 -3z m-903 -30 c-11 -16
-35 -49 -53 -75 -26 -39 -43 -52 -97 -74 -36 -14 -71 -31 -79 -37 -27 -22 33
75 74 120 26 29 61 52 100 68 76 31 81 31 55 -2z m-601 -138 c-29 -86 -40
-106 -98 -172 -76 -86 -77 -86 -63 57 9 86 12 96 38 117 47 38 147 103 151 99
2 -2 -10 -48 -28 -101z m1640 56 c20 -22 44 -53 54 -70 l17 -30 -63 22 c-42
14 -83 39 -118 69 l-54 48 64 0 c62 0 65 -1 100 -39z m-979 25 c0 -2 -8 -10
-17 -17 -16 -13 -17 -12 -4 4 13 16 21 21 21 13z m1131 -111 c16 -33 25 -53
19 -45 -22 32 -80 133 -80 139 1 13 33 -36 61 -94z m376 34 l13 -34 -25 30
c-14 17 -31 39 -37 50 -11 19 -10 19 13 4 13 -9 29 -31 36 -50z m-199 -64 c47
-41 72 -83 96 -164 l16 -55 -27 26 c-16 14 -50 42 -78 62 -42 32 -56 50 -86
121 l-36 84 36 -19 c20 -10 55 -35 79 -55z m581 -69 c29 -30 52 -58 50 -62 -2
-5 -53 40 -114 100 -90 90 -99 101 -50 63 33 -25 84 -71 114 -101z m-1542 72
l46 -11 -45 -23 c-24 -12 -73 -26 -109 -29 l-64 -7 42 41 c45 44 59 47 130 29z
m381 -5 c-16 -2 -40 -2 -55 0 -16 2 -3 4 27 4 30 0 43 -2 28 -4z m-1211 -80
c-18 -51 -97 -170 -97 -147 0 26 38 106 73 152 22 28 41 52 42 52 2 0 -7 -26
-18 -57z m256 39 c-36 -27 -127 -76 -119 -64 6 11 125 82 136 82 3 0 -5 -8
-17 -18z m197 4 c0 -2 -8 -10 -17 -17 -16 -13 -17 -12 -4 4 13 16 21 21 21 13z
m150 0 c0 -2 -8 -10 -17 -17 -16 -13 -17 -12 -4 4 13 16 21 21 21 13z m673
-23 c27 -4 45 -15 64 -40 14 -18 24 -36 21 -38 -10 -10 -94 27 -128 55 -38 33
-32 36 43 23z m-1728 -142 c0 -71 -3 -124 -7 -118 -15 23 -9 247 6 247 1 0 1
-58 1 -129z m1895 54 c0 -11 -14 7 -31 40 -7 13 -3 12 10 -5 11 -14 21 -29 21
-35z m932 -110 c40 -49 40 -50 33 -110 -6 -58 -33 -186 -40 -193 -2 -2 -28 47
-58 110 -53 112 -54 116 -60 229 l-6 114 45 -50 c25 -27 63 -72 86 -100z
m-1267 106 c110 -29 137 -44 217 -122 75 -75 145 -178 173 -258 34 -97 10
-343 -43 -448 -10 -18 -53 -69 -96 -113 -61 -61 -99 -90 -169 -126 -87 -45
-94 -47 -196 -52 -88 -4 -121 -1 -194 18 -134 33 -155 45 -247 139 -63 63 -97
108 -130 171 l-45 85 0 135 c0 121 3 144 29 225 27 88 30 92 120 181 75 75
107 99 185 137 l93 47 117 0 c80 0 138 -6 186 -19z m-902 -55 c-11 -35 -34
-74 -60 -104 l-42 -47 0 50 c-1 28 2 59 5 70 4 17 104 98 112 90 1 -1 -5 -28
-15 -59z m377 20 c0 -2 -11 -11 -25 -20 -28 -19 -33 -15 -9 8 14 15 34 22 34
12z m960 -31 c7 -9 8 -15 2 -15 -5 0 -12 7 -16 15 -3 8 -4 15 -2 15 2 0 9 -7
16 -15z m310 -50 c35 -36 62 -65 59 -65 -2 0 -34 29 -69 65 -35 36 -62 65 -59
65 2 0 34 -29 69 -65z m-2410 -146 l12 -75 -40 -90 c-22 -49 -46 -107 -53
-129 -7 -22 -16 -44 -20 -49 -12 -13 -42 143 -43 219 0 75 28 157 90 262 l28
48 8 -55 c4 -30 12 -89 18 -131z m932 93 c-9 -27 -32 -66 -49 -88 l-33 -39 1
40 c2 61 11 83 49 109 19 14 38 25 42 26 4 0 -1 -22 -10 -48z m1707 -37 c10
-28 22 -82 25 -120 l7 -70 -24 57 c-14 32 -28 84 -31 115 -4 32 -9 67 -12 78
-9 35 14 -4 35 -60z m-634 54 c11 -17 -1 -21 -15 -4 -8 9 -8 15 -2 15 6 0 14
-5 17 -11z m-1418 -121 c-2 -24 -4 -5 -4 42 0 47 2 66 4 43 2 -24 2 -62 0 -85z
m1608 51 c14 -16 6 -13 -22 10 -24 18 -46 38 -50 44 -10 17 49 -28 72 -54z
m246 -42 c30 -41 30 -45 7 -151 l-11 -50 -34 67 c-25 51 -35 87 -41 147 l-8
80 29 -28 c16 -15 42 -44 58 -65z m-1919 -127 c1 -14 -13 -65 -32 -113 -30
-79 -35 -86 -43 -65 -6 13 -10 59 -11 103 -1 72 2 87 34 150 l35 70 6 -60 c4
-33 9 -71 11 -85z m1693 -4 c-3 -27 -10 -56 -14 -63 -11 -21 -59 94 -65 157
l-5 55 46 -50 c44 -48 45 -50 38 -99z m830 -38 c-14 -50 -35 -110 -45 -132
-11 -23 -18 -32 -14 -21 27 94 64 226 70 250 5 22 8 25 11 12 3 -10 -7 -59
-22 -109z m-2782 47 c-6 -57 -7 -59 -15 -25 -4 21 -3 46 4 63 15 39 18 30 11
-38z m534 33 c-3 -7 -5 -2 -5 12 0 14 2 19 5 13 2 -7 2 -19 0 -25z m1713 -139
c-28 -95 -34 -84 -7 13 12 42 24 73 25 67 2 -5 -6 -41 -18 -80z m-1823 34 c-3
-10 -5 -4 -5 12 0 17 2 24 5 18 2 -7 2 -21 0 -30z m1573 -23 l-11 -25 6 25 c2
14 5 34 6 45 2 19 2 19 6 0 2 -12 -1 -32 -7 -45z m-1383 8 c-3 -7 -5 -2 -5 12
0 14 2 19 5 13 2 -7 2 -19 0 -25z m2302 -225 c1 -55 -5 -89 -24 -139 -28 -74
-87 -183 -91 -168 -2 5 -10 62 -19 126 l-16 117 30 58 c16 32 41 94 57 138
l29 80 16 -70 c10 -38 18 -103 18 -142z m-3150 82 c-16 -55 -34 -120 -41 -145
-6 -26 -13 -38 -15 -28 -7 28 71 287 82 276 2 -2 -10 -48 -26 -103z m2565 -30
c1 -73 -2 -87 -34 -150 l-35 -69 -11 84 c-10 83 -10 84 23 159 18 42 33 83 34
91 0 8 5 4 11 -10 6 -14 11 -61 12 -105z m-1734 -140 l-1 -50 -39 44 c-43 47
-48 69 -29 136 l12 40 28 -60 c20 -42 29 -75 29 -110z m1280 158 c0 -5 -5 -15
-10 -23 -8 -12 -10 -11 -10 8 0 12 5 22 10 22 6 0 10 -3 10 -7z m126 -41 c-12
-11 -18 7 -10 30 l8 23 4 -23 c2 -13 1 -26 -2 -30z m-1749 -14 c-3 -7 -5 -2
-5 12 0 14 2 19 5 13 2 -7 2 -19 0 -25z m115 -40 c14 -35 29 -88 32 -118 3
-30 9 -66 13 -80 5 -20 -4 -14 -43 29 -27 29 -53 61 -58 71 -9 19 11 160 23
160 3 0 18 -28 33 -62z m2167 1 c1 -14 -6 -34 -15 -45 -14 -17 -15 -17 -10 -1
3 10 6 40 7 65 0 36 3 42 9 27 5 -11 9 -32 9 -46z m-2565 -299 l7 -114 -27 24
c-15 14 -53 56 -86 94 -57 65 -59 70 -53 110 10 67 37 200 42 209 2 4 28 -41
57 -100 52 -106 53 -110 60 -223z m194 107 c-3 -30 -4 -29 -26 26 -12 32 -22
72 -22 90 1 29 3 27 26 -26 14 -34 24 -73 22 -90z m1789 81 c-2 -13 -4 -3 -4
22 0 25 2 35 4 23 2 -13 2 -33 0 -45z m230 -90 c-2 -24 -4 -5 -4 42 0 47 2 66
4 43 2 -24 2 -62 0 -85z m-314 0 c-22 -24 -73 -52 -73 -40 0 24 27 81 54 116
l31 38 3 -47 c2 -35 -2 -52 -15 -67z m232 -75 c-6 -42 -40 -79 -102 -112 l-22
-11 21 62 c13 38 38 82 62 111 41 47 41 47 44 20 2 -15 1 -46 -3 -70z m-1355
52 c14 -19 14 -19 -2 -6 -10 7 -18 18 -18 24 0 6 1 8 3 6 1 -2 9 -13 17 -24z
m1940 -105 c0 -66 -3 -120 -7 -120 -5 0 -8 54 -8 120 0 66 3 120 8 120 4 0 7
-54 7 -120z m-2335 70 c21 -22 37 -40 34 -40 -3 0 -23 18 -44 40 -21 22 -37
40 -34 40 3 0 23 -18 44 -40z m1956 -84 c-27 -69 -48 -101 -129 -195 -19 -23
-18 -18 8 39 16 36 30 70 30 75 0 6 18 32 40 59 22 27 48 62 57 77 28 47 25
26 -6 -55z m-441 60 c0 -7 -72 -47 -77 -42 -3 2 12 14 34 25 42 22 43 23 43
17z m-220 -35 c0 -5 -7 -12 -16 -15 -14 -5 -15 -4 -4 9 14 17 20 19 20 6z
m-1042 -47 c-4 -3 -12 5 -18 18 -12 22 -12 22 6 6 10 -10 15 -20 12 -24z
m-186 -49 c45 -33 59 -51 81 -104 15 -35 25 -66 23 -68 -4 -5 -116 79 -138
103 -14 17 -58 115 -58 131 0 3 8 -1 19 -8 10 -8 43 -32 73 -54z m318 45 c6
-11 8 -20 6 -20 -3 0 -10 9 -16 20 -6 11 -8 20 -6 20 3 0 10 -9 16 -20z m1825
-96 l-7 -94 -46 -38 c-53 -44 -123 -92 -134 -92 -3 0 7 42 24 93 27 79 40 103
97 169 36 42 68 72 70 66 2 -5 0 -52 -4 -104z m-1705 71 c23 -8 60 -31 81 -50
l39 -35 -53 0 c-52 0 -55 1 -85 44 -45 62 -45 63 18 41z m-945 -111 c61 -59
96 -98 80 -86 -66 44 -214 192 -193 192 2 0 53 -48 113 -106z m1815 82 c0 -2
-7 -7 -16 -10 -8 -3 -12 -2 -9 4 6 10 25 14 25 6z m336 -15 c-7 -11 -91 -61
-103 -61 -6 0 94 66 105 69 2 1 1 -3 -2 -8z m-884 -23 c-8 -8 -17 -8 -34 0
-22 10 -21 11 12 11 26 1 31 -2 22 -11z m427 -18 c-12 -16 -29 -32 -38 -35 -9
-3 0 10 18 29 42 44 49 46 20 6z m-112 -25 c-53 -49 -84 -56 -147 -33 l-33 11
49 25 c27 14 69 29 94 33 88 13 89 12 37 -36z m-882 -65 c9 -16 13 -30 11 -30
-3 0 -12 14 -21 30 -9 17 -13 30 -11 30 3 0 12 -13 21 -30z m413 23 c-10 -2
-26 -2 -35 0 -10 3 -2 5 17 5 19 0 27 -2 18 -5z m252 -28 c19 -7 28 -14 20
-14 -8 0 -28 6 -45 14 -39 17 -21 18 25 0z m725 -12 c-62 -97 -125 -146 -219
-169 -28 -7 -28 -6 17 49 25 31 49 63 54 71 7 13 132 73 157 75 4 1 0 -11 -9
-26z m-1715 -66 c0 -4 -9 -2 -19 5 -20 12 -41 49 -41 70 0 12 59 -62 60 -75z
m475 67 c28 -9 71 -34 95 -55 l45 -38 -45 0 c-71 1 -92 11 -128 62 -19 26 -30
47 -26 47 4 0 30 -7 59 -16z m-713 -180 c8 -5 25 -35 36 -66 12 -31 35 -87 51
-123 l30 -67 -47 28 c-103 59 -194 140 -224 198 -20 40 -68 172 -68 188 0 4
46 -27 103 -71 57 -43 110 -82 119 -87z m1708 113 c0 -1 -30 -32 -67 -67 l-68
-65 65 68 c60 62 70 72 70 64z m-130 -22 c0 -2 -28 -27 -61 -55 -49 -41 -67
-50 -88 -46 -14 3 -52 10 -84 16 l-58 12 63 30 c44 22 85 33 138 38 41 4 78 8
83 8 4 1 7 0 7 -3z m885 -67 c-5 -12 -20 -22 -110 -74 -46 -26 -115 -56 -115
-50 0 2 37 25 83 50 45 25 96 54 112 66 35 24 36 24 30 8z m-1778 -101 c29
-23 51 -42 49 -44 -1 -2 -25 4 -52 13 -45 15 -137 76 -164 109 -21 26 116 -39
167 -78z m231 86 c-21 -2 -57 -2 -80 0 -24 2 -7 4 37 4 44 0 63 -2 43 -4z
m352 -57 c25 -8 36 -15 25 -15 -21 1 -98 27 -80 28 6 0 30 -6 55 -13z m760 -6
c-10 -19 -58 -45 -66 -37 -4 3 66 57 74 57 1 0 -2 -9 -8 -20z m-880 -34 c80
-33 82 -35 54 -43 -16 -4 -60 -8 -99 -8 -60 0 -80 5 -140 35 l-70 35 45 6 c96
13 125 9 210 -25z m197 18 c-3 -3 -12 -4 -19 -1 -8 3 -5 6 6 6 11 1 17 -2 13
-5z m-1046 -240 c8 -9 8 -14 1 -14 -11 0 -63 82 -106 167 -45 89 -29 72 34
-36 33 -57 65 -110 71 -117z m1309 152 c-40 -22 -120 -44 -180 -50 l-55 -5 60
25 c33 14 85 29 115 33 80 12 88 12 60 -3z m740 -78 c-68 -114 -139 -179 -235
-216 -44 -17 -93 -34 -109 -38 -27 -6 -26 -4 23 57 29 35 68 90 89 121 34 53
41 58 127 93 49 19 101 42 115 50 14 7 27 12 29 10 2 -3 -16 -37 -39 -77z
m-1892 27 c70 -23 95 -37 158 -93 41 -37 70 -68 64 -70 -7 -3 -54 -1 -106 3
-108 8 -107 7 -180 117 -47 71 -52 83 -31 76 6 -3 49 -17 95 -33z m1522 -114
c-17 -32 -171 -191 -185 -191 -11 0 182 209 193 210 1 0 -2 -9 -8 -19z m-905
0 l30 -7 -37 -7 c-33 -7 -78 4 -78 18 0 7 48 4 85 -4z m690 -52 c-22 -23 -66
-64 -99 -91 -55 -46 -61 -49 -100 -43 -87 14 -191 37 -198 44 -4 4 43 30 105
58 99 46 123 52 212 61 55 5 104 10 110 10 5 1 -9 -17 -30 -39z m-982 -116
c-34 -2 -93 -2 -130 0 -37 2 -9 3 62 3 72 0 102 -1 68 -3z m458 -52 c30 -10
89 -26 132 -36 42 -10 77 -22 77 -27 0 -10 2 -11 -75 7 -62 15 -193 60 -204
70 -9 10 17 5 70 -14z m-127 -81 c64 -27 123 -50 131 -50 7 0 16 -4 19 -8 6
-10 -79 -31 -171 -42 -83 -10 -127 1 -253 62 l-105 52 100 13 c55 7 107 14
115 17 34 9 53 4 164 -44z"/>
</g>
</svg>
